<svg id="Capa_1" enable-background="new 0 0 511.916 511.916" height="512" viewBox="0 0 511.916 511.916" width="512" xmlns="http://www.w3.org/2000/svg"><path d="m449.492 351.916c11.046 0 20-8.954 20-20v-238c0-44.112-35.888-80-80-80h-188.083c-5.335 0-10.449 2.131-14.205 5.92l-19.957 20.134-28.255-28.255c-7.555-7.554-17.599-11.715-28.284-11.715s-20.729 4.161-28.284 11.716l-28.284 28.284c-7.555 7.555-11.716 17.6-11.716 28.284s4.161 20.729 11.716 28.284l28.63 28.63-17.482 17.638c-3.712 3.746-5.795 8.806-5.795 14.08v275c0 44.112 35.888 80 80 80h250c44.112 0 80-35.888 80-80 0-11.046-8.954-20-20-20s-20 8.954-20 20c0 22.056-17.944 40-40 40h-250c-22.056 0-40-17.944-40-40v-266.768l104.011-104.936 78.846 78.846c3.75 3.751 8.838 5.858 14.142 5.858h133v187c0 11.046 8.954 20 20 20zm-338.563-255.127-28.505-28.505 28.284-28.284 28.38 28.38zm193.847 8.127-51-51h135.716c22.056 0 40 17.944 40 40v11zm27.106 130.648c-59.817-59.802-161.879-56.746-166.197-56.585-10.933.404-19.472 9.511-19.232 20.419-.274 12.286-.479 107.889 56.635 164.989 22.918 22.912 48.021 34.529 74.61 34.529.951 0 14.592-.088 30.38-4.593 6.962 14.405 10.377 23.94 10.469 24.204 2.884 8.236 10.612 13.394 18.875 13.394 2.185 0 4.408-.361 6.588-1.122 10.429-3.638 15.935-15.042 12.296-25.471-.445-1.275-4.698-13.247-13.244-30.699 9.81-10.525 23.17-34.737 23.358-64.34.17-26.502-11.45-51.643-34.538-74.725zm-10.929 99.726c-15.148-23.674-35.467-49.721-61.547-71.976-8.401-7.169-21.025-6.17-28.196 2.231-7.17 8.402-6.171 21.026 2.231 28.196 22.935 19.571 40.963 42.969 54.411 64.189-3.99.669-7.586.985-10.154.985-15.817 0-30.972-7.463-46.33-22.817-33.549-33.54-42.118-87.559-44.251-116.528 28.951 2.09 82.802 10.608 116.484 44.282 15.456 15.452 22.92 30.558 22.821 46.183-.063 10-2.622 18.717-5.469 25.255z"/></svg>